# xmcd
#
# Track frame offsets:
#	150
#	11194
#	23895
#	34459
#	47912
#	59956
#	71527
#	82587
#	96319
#	111352
#	124685
#	138165
#	151685
#	162274
#	177845
#	190971
#
# Disc length: 2718
#
# Revision: 2
# Processed by: cddbd v1.5.1PL0 Copyright (c) Steve Scherf et al.
# Submitted via: Axialis_AX_CDPlayer 2.6
# Normalized: r0:DSETVAR1,TDELIM( - ),TSWAP
#
DISCID=da0a9c10
DTITLE=Various Artist - Ultimate Classic Country Collection 3: Disc 2
DYEAR=1900
DGENRE=
TTITLE0=Marty Robbins - Singing The Blues
TTITLE1=Bobby Bare - Detroit City
TTITLE2=Everly Brothers - Bye Bye Love
TTITLE3=Patsy Cline - She's Got You
TTITLE4=Glen Campbell - Galveston
TTITLE5=George Jones - She Thinks I Still Care
TTITLE6=Freddie Hart - Easy Loving
TTITLE7=Lefty Frizzell - Saginaw, Michigan
TTITLE8=Jessi Colter - I'm Not Lisa
TTITLE9=David Houston - Almost Persuaded
TTITLE10=Patti Page - The Tennessee Waltz
TTITLE11=John Anderson - Swingin'
TTITLE12=Jimmy Rodgers - Kisses Sweeter Than Wine
TTITLE13=Kris Kristofferson - Why Me
TTITLE14=Bobby Helms - My Special Angel
TTITLE15=Johnny Tillotson - Send Me The Pillow You Dream On
EXTD=
EXTT0=
EXTT1=
EXTT2=
EXTT3=
EXTT4=
EXTT5=
EXTT6=
EXTT7=
EXTT8=
EXTT9=
EXTT10=
EXTT11=
EXTT12=
EXTT13=
EXTT14=
EXTT15=
PLAYORDER=
